<?xml version="1.0" encoding="UTF-8"?>
<!DOCTYPE svg PUBLIC "-//W3C//DTD SVG 1.1//EN" "http://www.w3.org/Graphics/SVG/1.1/DTD/svg11.dtd">
<!-- Creator: CorelDRAW 2021.5 -->
<svg xmlns="http://www.w3.org/2000/svg" xml:space="preserve" width="40mm" height="40mm" version="1.1" style="shape-rendering:geometricPrecision; text-rendering:geometricPrecision; image-rendering:optimizeQuality; fill-rule:evenodd; clip-rule:evenodd"
viewBox="0 0 4000 4000"
 xmlns:xlink="http://www.w3.org/1999/xlink"
 xmlns:xodm="http://www.corel.com/coreldraw/odm/2003">
 <defs>
  <style type="text/css">
   <![CDATA[
    .fil1 {fill:#FDC507}
    .fil0 {fill:#F85D0A}
   ]]>
  </style>
 </defs>
 <g id="Слой_x0020_1">
  <metadata id="CorelCorpID_0Corel-Layer"/>
  <rect class="fil0" x="-6.6" y="6.6" width="4000" height="4000" rx="1042.92" ry="1042.92"/>
  <path class="fil1" d="M1357.87 2211.11c-79.44,-47.42 -164.51,-191.95 -210.86,-306.66 -52.43,-129.76 -84.94,-272.05 -106.26,-424.18 -207.4,72.16 -365.17,407.81 -402.85,637.11 -61.41,373.64 39.52,738.12 245.12,1013.55 17.89,23.95 39.45,56.51 57.48,75.08 65.71,67.6 117.04,133.23 197.21,191.18 290.46,209.99 592.54,334.89 1007.34,289.43 574.61,-62.96 994.96,-468.07 1150.9,-933.83 254.08,-758.86 -257.6,-965.41 -256.9,-1701.19 -327.25,61.33 -549.82,368.55 -519.55,733.76 -55.82,-35.06 -151.96,-219.91 -177.62,-272.25 -156.44,-319.06 -141.67,-843.52 -139.59,-1195.85 -89.81,26.43 -164.73,68.95 -234.59,109.74 -149.37,87.21 -261.35,194.85 -357.83,330.98 -316.87,447.11 -234.59,940.98 -252,1453.13z"/>
 </g>
</svg>
