<?xml version="1.0" encoding="UTF-8"?>
<!DOCTYPE svg PUBLIC "-//W3C//DTD SVG 1.1//EN" "http://www.w3.org/Graphics/SVG/1.1/DTD/svg11.dtd">
<!-- Creator: CorelDRAW 2021.5 -->
<svg xmlns="http://www.w3.org/2000/svg" xml:space="preserve" width="40mm" height="40mm" version="1.1" style="shape-rendering:geometricPrecision; text-rendering:geometricPrecision; image-rendering:optimizeQuality; fill-rule:evenodd; clip-rule:evenodd"
viewBox="0 0 4000 4000"
 xmlns:xlink="http://www.w3.org/1999/xlink"
 xmlns:xodm="http://www.corel.com/coreldraw/odm/2003">
 <defs>
  <style type="text/css">
   <![CDATA[
    .fil0 {fill:#000406}
    .fil2 {fill:#5FA816}
    .fil1 {fill:#F80203}
    .fil3 {fill:#FF9701}
   ]]>
  </style>
 </defs>
 <g id="Слой_x0020_1">
  <metadata id="CorelCorpID_0Corel-Layer"/>
  <rect class="fil0" x="-6.6" y="6.6" width="4000" height="4000" rx="800" ry="800"/>
  <path class="fil1" d="M3610.48 3502.4c-95.77,-172.17 -855.51,-46.13 -1441.62,-1170.49 -184.1,-353.17 -366.76,-640.85 -654.79,-872.61 -31.57,-25.4 -126.55,-96.76 -168.3,-110.82 -19.88,24.48 -25.96,62.73 -29.01,99.95 -10.9,148.67 120.92,302.33 179.18,441.74 13.61,32.59 -337.26,52.31 -531.06,-94.88 -44.52,-32.71 -72.66,-54.77 -109.9,-83.05 -117.85,194.32 -199.88,323.36 -424.83,421.21 0,0 -47.71,-38.16 -69.12,-65.06 -51.34,-64.52 -85.89,-173.23 -86.37,-263.14 -79.4,150.72 -57.43,416.28 18.02,566.36 151.65,301.65 366.9,538.15 625.82,749.42 108.94,88.87 168.37,140.51 291.71,222.97 520.47,347.94 1083.21,544.79 1745.35,416.2 99.03,-19.24 602.24,-134.86 654.92,-257.8z"/>
  <path class="fil2" d="M741.53 1254.15c-63.25,-258.28 -204.97,-524.72 94.96,-735.7 34.39,-24.19 70.04,-42.72 110.3,-60.72 84.87,-37.96 85.41,-203.63 -82.31,-178.55 -140.08,38.08 -276.19,170.93 -339.3,290.35 -131.56,248.91 -66.63,517.04 38.14,762.61 51.26,111.72 4.27,115.08 -71.35,188.27 -156.03,132.14 -130.22,345.25 -34.68,486.65 164.45,-96.74 336.82,-400.05 373.33,-438.98 0,0 257.12,241.06 512.15,249.43 -96.12,-155.05 -166.05,-208.08 -97.14,-493.4 -138.9,-26.11 -229.75,-37.74 -370.62,8.92 -33.2,11 -61.53,17.18 -80.18,11.57 -34.29,-14.18 -38.93,-60.84 -53.3,-90.45z"/>
  <path class="fil3" d="M3373.59 1095.55c185.9,309.29 -103.37,490.42 -212.66,649.41 -64.88,94.42 -176.83,346.28 -27.25,426.76 207.29,98.13 374.16,-85.01 259.32,-319.09 156.76,1.94 317.69,39.66 370.92,186.7 137.95,381.05 -300.28,688.23 -557.11,756.48 -235.56,62.58 -547.15,-8.45 -536.34,-376.76 4.99,-169.9 130.01,-202.82 157.9,-250.79 -69.83,-41.77 -145.92,-65.2 -219.37,-70.86 -78.39,-6.03 -140.07,16.99 -192.92,40.3 -77.08,-70.86 -99.18,-227.63 -54.73,-255.6 25.63,-16.13 124.16,-48.42 150,-65.23 131.92,-85.74 218.75,-278.55 173.9,-472.25 -229.81,329.47 -455.5,54.41 -632.1,164.24 -37.12,23.08 -35.07,35.66 -61.72,77.6 -623.17,-453.64 -182.81,-1054.56 -3.92,-1046.27 6.77,227.22 -3.41,397.4 232.36,528.59 248.25,138.12 301.77,-182.23 328.3,-329.34 109.43,-606.68 395.24,-263.03 571.67,-333 137.8,-54.64 121.79,-123.71 168.56,-164.24 93.86,115.28 96.55,328.62 5.52,424.35 -88.44,93.02 -201.69,99.95 -299.41,183.08 -107.36,91.36 -121.8,297.75 57.57,394.03 233.75,125.49 281.76,-128.35 321.51,-148.11z"/>
 </g>
</svg>
